<?xml version="1.0" encoding="UTF-8" standalone="no"?>
<svg
   xmlns:dc="http://purl.org/dc/elements/1.1/"
   xmlns:cc="http://creativecommons.org/ns#"
   xmlns:rdf="http://www.w3.org/1999/02/22-rdf-syntax-ns#"
   xmlns:svg="http://www.w3.org/2000/svg"
   xmlns="http://www.w3.org/2000/svg"
   xmlns:sodipodi="http://sodipodi.sourceforge.net/DTD/sodipodi-0.dtd"
   xmlns:inkscape="http://www.inkscape.org/namespaces/inkscape"
   version="1.1"
   id="Layer_1"
   x="0px"
   y="0px"
   viewBox="0 0 512.001 512.001"
   style="enable-background:new 0 0 512.001 512.001;"
   xml:space="preserve"
   sodipodi:docname="fantasma2-izquierda.svg"
   inkscape:version="1.0.2 (e86c8708, 2021-01-15)"><metadata
   id="metadata91"><rdf:RDF><cc:Work
       rdf:about=""><dc:format>image/svg+xml</dc:format><dc:type
         rdf:resource="http://purl.org/dc/dcmitype/StillImage" /><dc:title></dc:title></cc:Work></rdf:RDF></metadata><defs
   id="defs89" /><sodipodi:namedview
   pagecolor="#ffffff"
   bordercolor="#666666"
   borderopacity="1"
   objecttolerance="10"
   gridtolerance="10"
   guidetolerance="10"
   inkscape:pageopacity="0"
   inkscape:pageshadow="2"
   inkscape:window-width="1440"
   inkscape:window-height="762"
   id="namedview87"
   showgrid="false"
   inkscape:zoom="1.1367166"
   inkscape:cx="243.68431"
   inkscape:cy="213.26292"
   inkscape:window-x="0"
   inkscape:window-y="25"
   inkscape:window-maximized="1"
   inkscape:current-layer="Layer_1" />
<path
   style="fill:#ffa05a"
   d="M 263.602,0.135 C 376.58,4.152 464.487,100.436 464.487,213.484 V 508.8 c 0,2.792 -3.432,4.127 -5.319,2.069 l -57.191,-62.39 c -3.756,-4.098 -10.216,-4.098 -13.971,0 l -55.336,60.365 c -3.858,4.209 -10.493,4.209 -14.35,0 l -55.334,-60.365 c -3.756,-4.098 -10.216,-4.098 -13.971,0 l -55.334,60.365 c -3.858,4.209 -10.493,4.209 -14.35,0 l -55.336,-60.365 c -3.756,-4.098 -10.216,-4.098 -13.971,0 l -57.191,62.39 c -1.887,2.059 -5.319,0.724 -5.319,-2.069 V 208.486 C 47.512,90.819 144.992,-4.082 263.602,0.135 Z"
   id="path40" />
<path
   style="fill:#f08c46"
   d="M 360.243,227.632 C 360.243,120.427 281.171,28.357 176.65,15.694 203.314,4.707 232.728,-0.963 263.602,0.135 376.58,4.152 464.487,100.436 464.487,213.484 V 508.8 c 0,2.792 -3.432,4.127 -5.319,2.069 l -57.191,-62.39 c -3.755,-4.098 -10.216,-4.098 -13.971,0 l -27.762,30.285 V 227.632 Z"
   id="path42" />
<path
   style="fill:#ffffff"
   d="m 325.616,303.255 v 0 c 31.001,0 56.132,-25.131 56.132,-56.132 v -20.412 c 0,-31.001 -25.131,-56.132 -56.132,-56.132 v 0 c -31.001,0 -56.132,25.131 -56.132,56.132 v 20.412 c 0.002,31.001 25.132,56.132 56.132,56.132 z"
   id="path44" />
<path
   style="fill:#e4eaf6"
   d="m 294.999,293.049 c 31.001,0 56.132,-25.131 56.132,-56.132 v -20.412 c 0,-18.952 -9.419,-35.676 -23.803,-45.839 30.201,0.912 54.421,25.621 54.421,56.045 v 20.412 c 0,31.001 -25.131,56.132 -56.132,56.132 -12.048,0 -23.184,-3.831 -32.327,-10.292 0.572,0.017 1.132,0.086 1.709,0.086 z"
   id="path46" />
<path
   style="fill:#82b9ff"
   d="m 310.308,262.431 v 0 c 11.273,0 20.412,-9.138 20.412,-20.412 v -10.205 c 0,-11.273 -9.138,-20.412 -20.412,-20.412 v 0 c -11.273,0 -20.412,9.138 -20.412,20.412 v 10.205 c 0,11.275 9.139,20.412 20.412,20.412 z"
   id="path48" />
<path
   style="fill:#ffffff"
   d="m 186.382,303.255 v 0 c 31.001,0 56.132,-25.131 56.132,-56.132 v -20.412 c 0,-31.001 -25.131,-56.132 -56.132,-56.132 v 0 c -31.001,0 -56.132,25.131 -56.132,56.132 v 20.412 c 0.001,31.001 25.132,56.132 56.132,56.132 z"
   id="path50" />
<path
   style="fill:#e4eaf6"
   d="m 155.765,293.049 c 31.001,0 56.132,-25.131 56.132,-56.132 v -20.412 c 0,-18.952 -9.419,-35.676 -23.804,-45.839 30.201,0.912 54.421,25.621 54.421,56.045 v 20.412 c 0,31.001 -25.131,56.132 -56.132,56.132 -12.048,0 -23.184,-3.831 -32.327,-10.292 0.572,0.017 1.132,0.086 1.71,0.086 z"
   id="path52" />
<path
   style="fill:#82b9ff"
   d="m 171.074,262.431 v 0 c 11.273,0 20.412,-9.138 20.412,-20.412 v -10.205 c 0,-11.273 -9.138,-20.412 -20.412,-20.412 v 0 c -11.273,0 -20.412,9.138 -20.412,20.412 v 10.205 c 0,11.275 9.138,20.412 20.412,20.412 z"
   id="path54" />
<g
   id="g56"
   transform="matrix(-1,0,0,1,512.001,0)">
</g>
<g
   id="g58"
   transform="matrix(-1,0,0,1,512.001,0)">
</g>
<g
   id="g60"
   transform="matrix(-1,0,0,1,512.001,0)">
</g>
<g
   id="g62"
   transform="matrix(-1,0,0,1,512.001,0)">
</g>
<g
   id="g64"
   transform="matrix(-1,0,0,1,512.001,0)">
</g>
<g
   id="g66"
   transform="matrix(-1,0,0,1,512.001,0)">
</g>
<g
   id="g68"
   transform="matrix(-1,0,0,1,512.001,0)">
</g>
<g
   id="g70"
   transform="matrix(-1,0,0,1,512.001,0)">
</g>
<g
   id="g72"
   transform="matrix(-1,0,0,1,512.001,0)">
</g>
<g
   id="g74"
   transform="matrix(-1,0,0,1,512.001,0)">
</g>
<g
   id="g76"
   transform="matrix(-1,0,0,1,512.001,0)">
</g>
<g
   id="g78"
   transform="matrix(-1,0,0,1,512.001,0)">
</g>
<g
   id="g80"
   transform="matrix(-1,0,0,1,512.001,0)">
</g>
<g
   id="g82"
   transform="matrix(-1,0,0,1,512.001,0)">
</g>
<g
   id="g84"
   transform="matrix(-1,0,0,1,512.001,0)">
</g>
</svg>
