<?xml version="1.0" encoding="UTF-8" standalone="no"?>
<svg
   xmlns:dc="http://purl.org/dc/elements/1.1/"
   xmlns:cc="http://creativecommons.org/ns#"
   xmlns:rdf="http://www.w3.org/1999/02/22-rdf-syntax-ns#"
   xmlns:svg="http://www.w3.org/2000/svg"
   xmlns="http://www.w3.org/2000/svg"
   xmlns:sodipodi="http://sodipodi.sourceforge.net/DTD/sodipodi-0.dtd"
   xmlns:inkscape="http://www.inkscape.org/namespaces/inkscape"
   width="24"
   height="24"
   viewBox="0 0 24 24"
   fill="none"
   version="1.1"
   id="svg14"
   sodipodi:docname="pacman1-izquierda.svg"
   inkscape:version="1.0.2 (e86c8708, 2021-01-15)">
  <metadata
     id="metadata20">
    <rdf:RDF>
      <cc:Work
         rdf:about="">
        <dc:format>image/svg+xml</dc:format>
        <dc:type
           rdf:resource="http://purl.org/dc/dcmitype/StillImage" />
        <dc:title></dc:title>
      </cc:Work>
    </rdf:RDF>
  </metadata>
  <defs
     id="defs18" />
  <sodipodi:namedview
     pagecolor="#ffffff"
     bordercolor="#666666"
     borderopacity="1"
     objecttolerance="10"
     gridtolerance="10"
     guidetolerance="10"
     inkscape:pageopacity="0"
     inkscape:pageshadow="2"
     inkscape:window-width="1440"
     inkscape:window-height="762"
     id="namedview16"
     showgrid="false"
     inkscape:zoom="24.25"
     inkscape:cx="12"
     inkscape:cy="12"
     inkscape:window-x="0"
     inkscape:window-y="25"
     inkscape:window-maximized="1"
     inkscape:current-layer="svg14" />
  <path
     d="m 10.0637,8 c -0.5523,0 -1,-0.44772 -1,-1 0,-0.55228 0.4477,-1 1,-1 0.5523,0 1,0.44772 1,1 0,0.55228 -0.4477,1 -1,1 z"
     fill="currentColor"
     id="path10" />
  <path
     fill-rule="evenodd"
     clip-rule="evenodd"
     d="M 11.1273,3 C 8.975,3 6.9992,3.7555 5.4505,5.01576 l -1.4472,1.44723 1.2952,1.29519 8e-4,-8e-4 L 9.5419,12 5.9037,15.6383 5.9049,15.6396 4,17.5445 5.4129,18.9575 5.4151,18.9553 C 6.969,20.2329 8.9586,21 11.1273,21 c 4.97056,0 9,-4.0294 9,-9 0,-4.97056 -4.02944,-9 -9,-9 z m 1.2431,9 -5.5324,5.5323 C 8.0229,18.4523 9.5111,19 11.1273,19 c 3.86599,0 7,-3.134 7,-7 0,-3.86599 -3.13401,-7 -7,-7 C 9.5111,5 8.0228,5.54772 6.838,6.46768 Z"
     fill="currentColor"
     id="path12" />
</svg>
